<svg width="217" height="45" viewBox="0 0 217 45" fill="none" xmlns="http://www.w3.org/2000/svg">
<path d="M0.237216 35V0.0909081H23.7599V6.17614H7.6179V14.4943H22.5497V20.5795H7.6179V28.9148H23.8281V35H0.237216ZM36.9574 35.4943C35.2869 35.4943 33.7983 35.2045 32.4915 34.625C31.1847 34.0341 30.1506 33.1648 29.3892 32.017C28.6392 30.858 28.2642 29.4148 28.2642 27.6875C28.2642 26.233 28.5313 25.0114 29.0653 24.0227C29.5994 23.0341 30.3267 22.2386 31.2472 21.6364C32.1676 21.0341 33.2131 20.5795 34.3835 20.2727C35.5653 19.9659 36.804 19.75 38.0994 19.625C39.6222 19.4659 40.8494 19.3182 41.7812 19.1818C42.7131 19.0341 43.3892 18.8182 43.8097 18.5341C44.2301 18.25 44.4403 17.8295 44.4403 17.2727V17.1705C44.4403 16.0909 44.0994 15.2557 43.4176 14.6648C42.7472 14.0739 41.7926 13.7784 40.554 13.7784C39.2472 13.7784 38.2074 14.0682 37.4347 14.6477C36.6619 15.2159 36.1506 15.9318 35.9006 16.7955L29.1847 16.25C29.5256 14.6591 30.196 13.2841 31.196 12.125C32.196 10.9545 33.4858 10.0568 35.0653 9.43182C36.6563 8.79545 38.4972 8.47727 40.5881 8.47727C42.0426 8.47727 43.4347 8.64773 44.7642 8.98864C46.1051 9.32955 47.2926 9.85795 48.3267 10.5739C49.3722 11.2898 50.196 12.2102 50.7983 13.3352C51.4006 14.4489 51.7017 15.7841 51.7017 17.3409V35H44.8153V31.3693H44.6108C44.1903 32.1875 43.6278 32.9091 42.9233 33.5341C42.2188 34.1477 41.3722 34.6307 40.3835 34.983C39.3949 35.3239 38.2528 35.4943 36.9574 35.4943ZM39.0369 30.483C40.1051 30.483 41.0483 30.2727 41.8665 29.8523C42.6847 29.4205 43.3267 28.8409 43.7926 28.1136C44.2585 27.3864 44.4915 26.5625 44.4915 25.642V22.8636C44.2642 23.0114 43.9517 23.1477 43.554 23.2727C43.1676 23.3864 42.7301 23.4943 42.2415 23.5966C41.7528 23.6875 41.2642 23.7727 40.7756 23.8523C40.2869 23.9205 39.8438 23.983 39.446 24.0398C38.5938 24.1648 37.8494 24.3636 37.2131 24.6364C36.5767 24.9091 36.0824 25.2784 35.7301 25.7443C35.3778 26.1989 35.2017 26.767 35.2017 27.4489C35.2017 28.4375 35.5597 29.1932 36.2756 29.7159C37.0028 30.2273 37.9233 30.483 39.0369 30.483ZM79.1193 16.2841L72.4716 16.6932C72.358 16.125 72.1136 15.6136 71.7386 15.1591C71.3636 14.6932 70.8693 14.3239 70.2557 14.0511C69.6534 13.767 68.9318 13.625 68.0909 13.625C66.9659 13.625 66.017 13.8636 65.2443 14.3409C64.4716 14.8068 64.0852 15.4318 64.0852 16.2159C64.0852 16.8409 64.3352 17.3693 64.8352 17.8011C65.3352 18.233 66.1932 18.5795 67.4091 18.8409L72.1477 19.7955C74.6932 20.3182 76.5909 21.1591 77.8409 22.3182C79.0909 23.4773 79.7159 25 79.7159 26.8864C79.7159 28.6023 79.2102 30.108 78.1989 31.4034C77.1989 32.6989 75.8239 33.7102 74.0739 34.4375C72.3352 35.1534 70.3295 35.5114 68.0568 35.5114C64.5909 35.5114 61.8295 34.7898 59.7727 33.3466C57.7273 31.892 56.5284 29.9148 56.1761 27.4148L63.3182 27.0398C63.5341 28.0966 64.0568 28.9034 64.8864 29.4602C65.7159 30.0057 66.7784 30.2784 68.0739 30.2784C69.3466 30.2784 70.3693 30.0341 71.142 29.5455C71.9261 29.0455 72.3239 28.4034 72.3352 27.6193C72.3239 26.9602 72.0455 26.4205 71.5 26C70.9545 25.5682 70.1136 25.2386 68.9773 25.0114L64.4432 24.108C61.8864 23.5966 59.983 22.7102 58.733 21.4489C57.4943 20.1875 56.875 18.5795 56.875 16.625C56.875 14.9432 57.3295 13.4943 58.2386 12.2784C59.1591 11.0625 60.4489 10.125 62.108 9.46591C63.7784 8.80682 65.733 8.47727 67.9716 8.47727C71.2784 8.47727 73.8807 9.17614 75.7784 10.5739C77.6875 11.9716 78.8011 13.875 79.1193 16.2841ZM88.7713 44.8182C87.8509 44.8182 86.9872 44.7443 86.1804 44.5966C85.3849 44.4602 84.7259 44.2841 84.2031 44.0682L85.8395 38.6477C86.6918 38.9091 87.4588 39.0511 88.1406 39.0739C88.8338 39.0966 89.4304 38.9375 89.9304 38.5966C90.4418 38.2557 90.8565 37.6761 91.1747 36.858L91.6009 35.75L82.2088 8.81818H89.8452L95.2656 28.0455H95.5384L101.01 8.81818H108.697L98.5213 37.8295C98.0327 39.2386 97.3679 40.4659 96.527 41.5114C95.6974 42.5682 94.6463 43.3807 93.3736 43.9489C92.1009 44.5284 90.5668 44.8182 88.7713 44.8182Z" fill="#0B0000"/>
<path d="M112.55 35V0.0909081H126.322C128.959 0.0909081 131.209 0.562499 133.072 1.50568C134.947 2.4375 136.374 3.76136 137.351 5.47727C138.339 7.18182 138.834 9.1875 138.834 11.4943C138.834 13.8125 138.334 15.8068 137.334 17.4773C136.334 19.1364 134.885 20.4091 132.987 21.2955C131.101 22.1818 128.817 22.625 126.135 22.625H116.913V16.6932H124.942C126.351 16.6932 127.521 16.5 128.453 16.1136C129.385 15.7273 130.078 15.1477 130.533 14.375C130.999 13.6023 131.232 12.642 131.232 11.4943C131.232 10.3352 130.999 9.35795 130.533 8.5625C130.078 7.76704 129.379 7.16477 128.436 6.75568C127.504 6.33523 126.328 6.125 124.908 6.125H119.93V35H112.55ZM131.402 19.1136L140.078 35H131.93L123.442 19.1136H131.402ZM155.423 35.5114C152.73 35.5114 150.412 34.9659 148.469 33.875C146.537 32.7727 145.048 31.2159 144.003 29.2045C142.957 27.1818 142.435 24.7898 142.435 22.0284C142.435 19.3352 142.957 16.9716 144.003 14.9375C145.048 12.9034 146.52 11.3182 148.418 10.1818C150.327 9.04545 152.565 8.47727 155.134 8.47727C156.861 8.47727 158.469 8.75568 159.957 9.3125C161.457 9.85795 162.764 10.6818 163.878 11.7841C165.003 12.8864 165.878 14.2727 166.503 15.9432C167.128 17.6023 167.44 19.5455 167.44 21.7727V23.767H145.332V19.267H160.605C160.605 18.2216 160.378 17.2955 159.923 16.4886C159.469 15.6818 158.838 15.0511 158.031 14.5966C157.236 14.1307 156.31 13.8977 155.253 13.8977C154.151 13.8977 153.173 14.1534 152.321 14.6648C151.48 15.1648 150.821 15.8409 150.344 16.6932C149.866 17.5341 149.622 18.4716 149.611 19.5057V23.7841C149.611 25.0795 149.849 26.1989 150.327 27.142C150.815 28.0852 151.503 28.8125 152.389 29.3239C153.276 29.8352 154.327 30.0909 155.543 30.0909C156.349 30.0909 157.088 29.9773 157.759 29.75C158.429 29.5227 159.003 29.1818 159.48 28.7273C159.957 28.2727 160.321 27.7159 160.571 27.0568L167.287 27.5C166.946 29.1136 166.247 30.5227 165.19 31.7273C164.145 32.9205 162.793 33.8523 161.134 34.5227C159.486 35.1818 157.582 35.5114 155.423 35.5114ZM179.44 19.8636V35H172.179V8.81818H179.099V13.4375H179.406C179.986 11.9148 180.957 10.7102 182.321 9.82386C183.685 8.92614 185.338 8.47727 187.281 8.47727C189.099 8.47727 190.685 8.875 192.037 9.67045C193.389 10.4659 194.44 11.6023 195.19 13.0795C195.94 14.5455 196.315 16.2955 196.315 18.3295V35H189.054V19.625C189.065 18.0227 188.656 16.7727 187.827 15.875C186.997 14.9659 185.855 14.5114 184.401 14.5114C183.423 14.5114 182.56 14.7216 181.81 15.142C181.071 15.5625 180.491 16.1761 180.071 16.983C179.662 17.7784 179.452 18.7386 179.44 19.8636ZM215.964 8.81818V14.2727H200.197V8.81818H215.964ZM203.777 2.54545H211.038V26.9545C211.038 27.625 211.141 28.1477 211.345 28.5227C211.55 28.8864 211.834 29.142 212.197 29.2898C212.572 29.4375 213.004 29.5114 213.493 29.5114C213.834 29.5114 214.175 29.483 214.516 29.4261C214.857 29.358 215.118 29.3068 215.3 29.2727L216.442 34.6761C216.078 34.7898 215.567 34.9205 214.908 35.0682C214.249 35.2273 213.447 35.3239 212.504 35.358C210.754 35.4261 209.22 35.1932 207.902 34.6591C206.595 34.125 205.578 33.2955 204.851 32.1705C204.124 31.0455 203.766 29.625 203.777 27.9091V2.54545Z" fill="#FCBC0E"/>
</svg>
