<svg width="34" height="24" viewBox="0 0 34 24" fill="none" xmlns="http://www.w3.org/2000/svg">
<path fill-rule="evenodd" clip-rule="evenodd" d="M0.368896 12C0.368896 11.6685 0.493691 11.3505 0.715828 11.1161C0.937964 10.8817 1.23925 10.75 1.55339 10.75L29.491 10.75L22.0357 2.88501C21.8133 2.65029 21.6884 2.33195 21.6884 2.00001C21.6884 1.66807 21.8133 1.34973 22.0357 1.11501C22.2581 0.880291 22.5598 0.74843 22.8744 0.74843C23.1889 0.74843 23.4906 0.880291 23.713 1.11501L33.189 11.115C33.2993 11.2311 33.3868 11.3691 33.4465 11.5209C33.5062 11.6728 33.537 11.8356 33.537 12C33.537 12.1644 33.5062 12.3272 33.4465 12.4791C33.3868 12.631 33.2993 12.7689 33.189 12.885L23.713 22.885C23.4906 23.1197 23.1889 23.2516 22.8744 23.2516C22.5598 23.2516 22.2581 23.1197 22.0357 22.885C21.8133 22.6503 21.6884 22.3319 21.6884 22C21.6884 21.6681 21.8133 21.3497 22.0357 21.115L29.491 13.25L1.55339 13.25C1.23925 13.25 0.937964 13.1183 0.715828 12.8839C0.493691 12.6495 0.368896 12.3315 0.368896 12Z" fill="#F8F8F8"/>
</svg>
