<svg width="37" height="36" viewBox="0 0 37 36" fill="none" xmlns="http://www.w3.org/2000/svg">
<path d="M18.3333 0C8.51467 0 0.555557 7.95911 0.555557 17.7778C0.555557 27.5964 8.51467 35.5556 18.3333 35.5556C28.152 35.5556 36.1111 27.5964 36.1111 17.7778C36.1111 7.95911 28.152 0 18.3333 0Z" fill="#0B0000"/>
<path d="M18.3333 0C8.51467 0 0.555557 7.95911 0.555557 17.7778C0.555557 27.5964 8.51467 35.5556 18.3333 35.5556C28.152 35.5556 36.1111 27.5964 36.1111 17.7778C36.1111 7.95911 28.152 0 18.3333 0Z" fill="black" fill-opacity="0.2"/>
<path d="M20.74 22.4898H25.3409L26.0636 17.816H20.74V15.2614C20.74 13.32 21.3747 11.5983 23.1907 11.5983H26.1089V7.52004C25.596 7.4507 24.5116 7.29959 22.4627 7.29959C18.1836 7.29959 15.6752 9.55915 15.6752 14.7076V17.8169H11.276V22.4907H15.6743V35.3369C16.5454 35.4667 17.428 35.5556 18.3338 35.5556C19.1525 35.5556 19.9516 35.4809 20.74 35.3743V22.4898Z" fill="white"/>
</svg>
