<svg width="145" height="31" viewBox="0 0 145 31" fill="none" xmlns="http://www.w3.org/2000/svg">
<path d="M0.491477 24V0.727272H16.1733V4.78409H5.41193V10.3295H15.3665V14.3864H5.41193V19.9432H16.2188V24H0.491477ZM24.9716 24.3295C23.858 24.3295 22.8655 24.1364 21.9943 23.75C21.1231 23.3561 20.4337 22.7765 19.9261 22.0114C19.4261 21.2386 19.1761 20.2765 19.1761 19.125C19.1761 18.1553 19.3542 17.3409 19.7102 16.6818C20.0663 16.0227 20.5511 15.4924 21.1648 15.0909C21.7784 14.6894 22.4754 14.3864 23.2557 14.1818C24.0436 13.9773 24.8693 13.8333 25.733 13.75C26.7481 13.6439 27.5663 13.5455 28.1875 13.4545C28.8087 13.3561 29.2595 13.2121 29.5398 13.0227C29.8201 12.8333 29.9602 12.553 29.9602 12.1818V12.1136C29.9602 11.3939 29.733 10.8371 29.2784 10.4432C28.8314 10.0492 28.1951 9.85227 27.3693 9.85227C26.4981 9.85227 25.8049 10.0455 25.2898 10.4318C24.7746 10.8106 24.4337 11.2879 24.267 11.8636L19.7898 11.5C20.017 10.4394 20.464 9.52273 21.1307 8.75C21.7973 7.9697 22.6572 7.37121 23.7102 6.95454C24.7708 6.5303 25.9981 6.31818 27.392 6.31818C28.3617 6.31818 29.2898 6.43182 30.1761 6.65909C31.0701 6.88636 31.8617 7.23864 32.5511 7.71591C33.2481 8.19318 33.7973 8.80682 34.1989 9.55682C34.6004 10.2992 34.8011 11.1894 34.8011 12.2273V24H30.2102V21.5795H30.0739C29.7936 22.125 29.4186 22.6061 28.9489 23.0227C28.4792 23.4318 27.9148 23.7538 27.2557 23.9886C26.5966 24.2159 25.8352 24.3295 24.9716 24.3295ZM26.358 20.9886C27.0701 20.9886 27.6989 20.8485 28.2443 20.5682C28.7898 20.2803 29.2178 19.8939 29.5284 19.4091C29.839 18.9242 29.9943 18.375 29.9943 17.7614V15.9091C29.8428 16.0076 29.6345 16.0985 29.3693 16.1818C29.1117 16.2576 28.8201 16.3295 28.4943 16.3977C28.1686 16.4583 27.8428 16.5152 27.517 16.5682C27.1913 16.6136 26.8958 16.6553 26.6307 16.6932C26.0625 16.7765 25.5663 16.9091 25.142 17.0909C24.7178 17.2727 24.3883 17.5189 24.1534 17.8295C23.9186 18.1326 23.8011 18.5114 23.8011 18.9659C23.8011 19.625 24.0398 20.1288 24.517 20.4773C25.0019 20.8182 25.6155 20.9886 26.358 20.9886ZM53.0795 11.5227L48.6477 11.7955C48.572 11.4167 48.4091 11.0758 48.1591 10.7727C47.9091 10.4621 47.5795 10.2159 47.1705 10.0341C46.7689 9.8447 46.2879 9.75 45.7273 9.75C44.9773 9.75 44.3447 9.90909 43.8295 10.2273C43.3144 10.5379 43.0568 10.9545 43.0568 11.4773C43.0568 11.8939 43.2235 12.2462 43.5568 12.5341C43.8902 12.822 44.4621 13.053 45.2727 13.2273L48.4318 13.8636C50.1288 14.2121 51.3939 14.7727 52.2273 15.5455C53.0606 16.3182 53.4773 17.3333 53.4773 18.5909C53.4773 19.7348 53.1402 20.7386 52.4659 21.6023C51.7992 22.4659 50.8826 23.1402 49.7159 23.625C48.5568 24.1023 47.2197 24.3409 45.7045 24.3409C43.3939 24.3409 41.553 23.8598 40.1818 22.8977C38.8182 21.928 38.0189 20.6098 37.7841 18.9432L42.5455 18.6932C42.6894 19.3977 43.0379 19.9356 43.5909 20.3068C44.1439 20.6705 44.8523 20.8523 45.7159 20.8523C46.5644 20.8523 47.2462 20.6894 47.7614 20.3636C48.2841 20.0303 48.5492 19.6023 48.5568 19.0795C48.5492 18.6402 48.3636 18.2803 48 18C47.6364 17.7121 47.0758 17.4924 46.3182 17.3409L43.2955 16.7386C41.5909 16.3977 40.322 15.8068 39.4886 14.9659C38.6629 14.125 38.25 13.053 38.25 11.75C38.25 10.6288 38.553 9.66288 39.1591 8.85227C39.7727 8.04167 40.6326 7.41667 41.7386 6.97727C42.8523 6.53788 44.1553 6.31818 45.6477 6.31818C47.8523 6.31818 49.5871 6.78409 50.8523 7.71591C52.125 8.64773 52.8674 9.91667 53.0795 11.5227ZM59.5142 30.5455C58.9006 30.5455 58.3248 30.4962 57.7869 30.3977C57.2566 30.3068 56.8172 30.1894 56.4688 30.0455L57.5597 26.4318C58.1278 26.6061 58.6392 26.7008 59.0938 26.7159C59.5559 26.7311 59.9536 26.625 60.2869 26.3977C60.6278 26.1705 60.9044 25.7841 61.1165 25.2386L61.4006 24.5L55.1392 6.54545H60.2301L63.8438 19.3636H64.0256L67.6733 6.54545H72.7983L66.0142 25.8864C65.6884 26.8258 65.2453 27.6439 64.6847 28.3409C64.1316 29.0455 63.4309 29.5871 62.5824 29.9659C61.7339 30.3523 60.7112 30.5455 59.5142 30.5455Z" fill="#0B0000"/>
<path d="M75.3665 24V0.727272H84.5483C86.3059 0.727272 87.8059 1.04167 89.0483 1.67045C90.2983 2.29167 91.2491 3.17424 91.9006 4.31818C92.5597 5.45454 92.8892 6.79167 92.8892 8.32955C92.8892 9.875 92.5559 11.2045 91.8892 12.3182C91.2225 13.4242 90.2566 14.2727 88.9915 14.8636C87.7339 15.4545 86.2112 15.75 84.4233 15.75H78.2756V11.7955H83.6278C84.5672 11.7955 85.3475 11.6667 85.9688 11.4091C86.59 11.1515 87.0521 10.7652 87.3551 10.25C87.6657 9.73485 87.821 9.0947 87.821 8.32955C87.821 7.55682 87.6657 6.9053 87.3551 6.375C87.0521 5.8447 86.5862 5.44318 85.9574 5.17045C85.3362 4.89015 84.5521 4.75 83.6051 4.75H80.2869V24H75.3665ZM87.9347 13.4091L93.7188 24H88.2869L82.6278 13.4091H87.9347ZM103.949 24.3409C102.153 24.3409 100.608 23.9773 99.3125 23.25C98.0246 22.5152 97.0322 21.4773 96.3352 20.1364C95.6383 18.7879 95.2898 17.1932 95.2898 15.3523C95.2898 13.5568 95.6383 11.9811 96.3352 10.625C97.0322 9.26894 98.0133 8.21212 99.2784 7.45454C100.551 6.69697 102.044 6.31818 103.756 6.31818C104.907 6.31818 105.979 6.50379 106.972 6.875C107.972 7.23864 108.843 7.78788 109.585 8.52273C110.335 9.25758 110.919 10.1818 111.335 11.2955C111.752 12.4015 111.96 13.697 111.96 15.1818V16.5114H97.2216V13.5114H107.403C107.403 12.8144 107.252 12.197 106.949 11.6591C106.646 11.1212 106.225 10.7008 105.688 10.3977C105.157 10.0871 104.54 9.93182 103.835 9.93182C103.1 9.93182 102.449 10.1023 101.881 10.4432C101.32 10.7765 100.881 11.2273 100.562 11.7955C100.244 12.3561 100.081 12.9811 100.074 13.6705V16.5227C100.074 17.3864 100.233 18.1326 100.551 18.7614C100.877 19.3902 101.335 19.875 101.926 20.2159C102.517 20.5568 103.218 20.7273 104.028 20.7273C104.566 20.7273 105.059 20.6515 105.506 20.5C105.953 20.3485 106.335 20.1212 106.653 19.8182C106.972 19.5152 107.214 19.1439 107.381 18.7045L111.858 19C111.631 20.0758 111.165 21.0152 110.46 21.8182C109.763 22.6136 108.862 23.2348 107.756 23.6818C106.657 24.1212 105.388 24.3409 103.949 24.3409ZM119.96 13.9091V24H115.119V6.54545H119.733V9.625H119.938C120.324 8.60985 120.972 7.80682 121.881 7.21591C122.79 6.61742 123.892 6.31818 125.188 6.31818C126.4 6.31818 127.456 6.58333 128.358 7.11364C129.259 7.64394 129.96 8.40151 130.46 9.38636C130.96 10.3636 131.21 11.5303 131.21 12.8864V24H126.369V13.75C126.377 12.6818 126.104 11.8485 125.551 11.25C124.998 10.6439 124.237 10.3409 123.267 10.3409C122.616 10.3409 122.04 10.4811 121.54 10.7614C121.047 11.0417 120.661 11.4508 120.381 11.9886C120.108 12.5189 119.968 13.1591 119.96 13.9091ZM144.31 6.54545V10.1818H133.798V6.54545H144.31ZM136.185 2.36364H141.026V18.6364C141.026 19.0833 141.094 19.4318 141.23 19.6818C141.366 19.9242 141.556 20.0947 141.798 20.1932C142.048 20.2917 142.336 20.3409 142.662 20.3409C142.889 20.3409 143.116 20.322 143.344 20.2841C143.571 20.2386 143.745 20.2045 143.866 20.1818L144.628 23.7841C144.385 23.8598 144.045 23.947 143.605 24.0455C143.166 24.1515 142.632 24.2159 142.003 24.2386C140.836 24.2841 139.813 24.1288 138.935 23.7727C138.063 23.4167 137.385 22.8636 136.901 22.1136C136.416 21.3636 136.177 20.4167 136.185 19.2727V2.36364Z" fill="white"/>
</svg>
