<svg width="36" height="36" viewBox="0 0 36 36" fill="none" xmlns="http://www.w3.org/2000/svg">
<path d="M35.2097 14.296H33.7777V14.2222H17.7777V21.3333H27.8248C26.359 25.4729 22.4204 28.4444 17.7777 28.4444C11.8871 28.4444 7.11109 23.6684 7.11109 17.7778C7.11109 11.8871 11.8871 7.1111 17.7777 7.1111C20.4968 7.1111 22.9706 8.13688 24.8542 9.81243L29.8826 4.78399C26.7075 1.82489 22.4604 0 17.7777 0C7.95998 0 0 7.95999 0 17.7778C0 27.5955 7.95998 35.5555 17.7777 35.5555C27.5955 35.5555 35.5555 27.5955 35.5555 17.7778C35.5555 16.5858 35.4328 15.4222 35.2097 14.296Z" fill="#0B0000"/>
<path d="M35.2097 14.296H33.7777V14.2222H17.7777V21.3333H27.8248C26.359 25.4729 22.4204 28.4444 17.7777 28.4444C11.8871 28.4444 7.11109 23.6684 7.11109 17.7778C7.11109 11.8871 11.8871 7.1111 17.7777 7.1111C20.4968 7.1111 22.9706 8.13688 24.8542 9.81243L29.8826 4.78399C26.7075 1.82489 22.4604 0 17.7777 0C7.95998 0 0 7.95999 0 17.7778C0 27.5955 7.95998 35.5555 17.7777 35.5555C27.5955 35.5555 35.5555 27.5955 35.5555 17.7778C35.5555 16.5858 35.4328 15.4222 35.2097 14.296Z" fill="black" fill-opacity="0.2"/>
<path d="M2.05078 9.5031L7.89166 13.7866C9.4721 9.87376 13.2996 7.1111 17.7787 7.1111C20.4978 7.1111 22.9716 8.13688 24.8552 9.81243L29.8836 4.78399C26.7085 1.82489 22.4614 0 17.7787 0C10.9503 0 5.02855 3.85511 2.05078 9.5031Z" fill="#0B0000"/>
<path d="M2.05078 9.5031L7.89166 13.7866C9.4721 9.87376 13.2996 7.1111 17.7787 7.1111C20.4978 7.1111 22.9716 8.13688 24.8552 9.81243L29.8836 4.78399C26.7085 1.82489 22.4614 0 17.7787 0C10.9503 0 5.02855 3.85511 2.05078 9.5031Z" fill="black" fill-opacity="0.2"/>
<path d="M17.778 35.5556C22.37 35.5556 26.5424 33.7982 29.6971 30.9404L24.1949 26.2845C22.41 27.6364 20.1913 28.4444 17.778 28.4444C13.154 28.4444 9.22781 25.496 7.7487 21.3813L1.95139 25.848C4.8936 31.6053 10.8687 35.5556 17.778 35.5556Z" fill="#0B0000"/>
<path d="M17.778 35.5556C22.37 35.5556 26.5424 33.7982 29.6971 30.9404L24.1949 26.2845C22.41 27.6364 20.1913 28.4444 17.778 28.4444C13.154 28.4444 9.22781 25.496 7.7487 21.3813L1.95139 25.848C4.8936 31.6053 10.8687 35.5556 17.778 35.5556Z" fill="black" fill-opacity="0.2"/>
<path d="M35.2093 14.296L35.1951 14.2222H33.7773H17.7773V21.3333H27.8244C27.1204 23.3218 25.8413 25.0364 24.1916 26.2853C24.1924 26.2844 24.1933 26.2844 24.1942 26.2835L29.6964 30.9395C29.3071 31.2933 35.5551 26.6667 35.5551 17.7778C35.5551 16.5858 35.4324 15.4222 35.2093 14.296Z" fill="#0B0000"/>
<path d="M35.2093 14.296L35.1951 14.2222H33.7773H17.7773V21.3333H27.8244C27.1204 23.3218 25.8413 25.0364 24.1916 26.2853C24.1924 26.2844 24.1933 26.2844 24.1942 26.2835L29.6964 30.9395C29.3071 31.2933 35.5551 26.6667 35.5551 17.7778C35.5551 16.5858 35.4324 15.4222 35.2093 14.296Z" fill="black" fill-opacity="0.2"/>
</svg>
