<svg width="24" height="30" viewBox="0 0 24 30" fill="none" xmlns="http://www.w3.org/2000/svg">
<path d="M12 16.25C13.6569 16.25 15 14.5711 15 12.5C15 10.4289 13.6569 8.75 12 8.75C10.3431 8.75 9 10.4289 9 12.5C9 14.5711 10.3431 16.25 12 16.25Z" stroke="#0B0000" stroke-width="2" stroke-linecap="round" stroke-linejoin="round"/>
<path d="M12 2.5C9.87827 2.5 7.84344 3.55357 6.34315 5.42893C4.84285 7.3043 4 9.84784 4 12.5C4 14.865 4.402 16.4125 5.5 18.125L12 27.5L18.5 18.125C19.598 16.4125 20 14.865 20 12.5C20 9.84784 19.1571 7.3043 17.6569 5.42893C16.1566 3.55357 14.1217 2.5 12 2.5V2.5Z" stroke="#0B0000" stroke-width="2" stroke-linecap="round" stroke-linejoin="round"/>
</svg>
