<svg width="46" height="51" viewBox="0 0 46 51" fill="none" xmlns="http://www.w3.org/2000/svg">
<path d="M39.9997 27.8335C39.9997 26.2751 38.7247 25.0001 37.1663 25.0001H25.833C24.2747 25.0001 22.9997 26.2751 22.9997 27.8335V39.1668C22.9997 40.7251 24.2747 42.0001 25.833 42.0001H37.1663C38.7247 42.0001 39.9997 40.7251 39.9997 39.1668V36.3335L43.598 38.2318C44.533 38.7418 45.6663 38.0618 45.6663 36.9851V30.0151C45.6663 28.9385 44.533 28.2585 43.598 28.7685L39.9997 30.6668V27.8335ZM19.5997 2.05013L2.59968 14.8001C1.18301 15.8768 0.333008 17.5485 0.333008 19.3335V44.8335C0.333008 47.9501 2.88301 50.5001 5.99967 50.5001H42.833C44.3913 50.5001 45.6663 49.2251 45.6663 47.6668C45.6663 46.1085 44.3913 44.8335 42.833 44.8335H5.99967V19.3335L22.9997 6.58346L39.9997 19.3335V22.1668H45.6663V19.3335C45.6663 17.5485 44.8163 15.8768 43.3997 14.8001L26.3997 2.05013C25.417 1.3188 24.2246 0.923828 22.9997 0.923828C21.7747 0.923828 20.5824 1.3188 19.5997 2.05013Z" fill="#0B0000"/>
</svg>
