<svg width="80" height="80" viewBox="0 0 80 80" fill="none" xmlns="http://www.w3.org/2000/svg">
<circle cx="40" cy="40" r="40" fill="white"/>
<path d="M57.7777 57.7777L49.3829 49.3679M54.035 38.1286C54.035 42.3473 52.3592 46.3931 49.3762 49.3762C46.3931 52.3592 42.3473 54.035 38.1286 54.035C33.91 54.035 29.8641 52.3592 26.8811 49.3762C23.898 46.3931 22.2222 42.3473 22.2222 38.1286C22.2222 33.91 23.898 29.8641 26.8811 26.8811C29.8641 23.898 33.91 22.2222 38.1286 22.2222C42.3473 22.2222 46.3931 23.898 49.3762 26.8811C52.3592 29.8641 54.035 33.91 54.035 38.1286V38.1286Z" stroke="#FFD233" stroke-width="3" stroke-linecap="round"/>
</svg>
