<svg width="48" height="48" viewBox="0 0 48 48" fill="none" xmlns="http://www.w3.org/2000/svg">
<circle cx="24" cy="24" r="24" fill="#D9D9D9" fill-opacity="0.9"/>
<path d="M31.3673 28.6531C30.4949 28.6531 29.6898 28.9592 29.0592 29.4704L22.7163 24.8816C22.8225 24.2987 22.8225 23.7013 22.7163 23.1184L29.0592 18.5296C29.6898 19.0408 30.4949 19.3469 31.3673 19.3469C33.3939 19.3469 35.0408 17.7 35.0408 15.6735C35.0408 13.6469 33.3939 12 31.3673 12C29.3408 12 27.6939 13.6469 27.6939 15.6735C27.6939 16.0286 27.7429 16.3684 27.8378 16.6929L21.8133 21.0551C20.9194 19.8704 19.499 19.102 17.898 19.102C15.1918 19.102 13 21.2939 13 24C13 26.7061 15.1918 28.898 17.898 28.898C19.499 28.898 20.9194 28.1296 21.8133 26.9449L27.8378 31.3071C27.7429 31.6316 27.6939 31.9745 27.6939 32.3265C27.6939 34.3531 29.3408 36 31.3673 36C33.3939 36 35.0408 34.3531 35.0408 32.3265C35.0408 30.3 33.3939 28.6531 31.3673 28.6531ZM31.3673 14.0816C32.2459 14.0816 32.9592 14.7949 32.9592 15.6735C32.9592 16.552 32.2459 17.2653 31.3673 17.2653C30.4888 17.2653 29.7755 16.552 29.7755 15.6735C29.7755 14.7949 30.4888 14.0816 31.3673 14.0816ZM17.898 26.6939C16.4133 26.6939 15.2041 25.4847 15.2041 24C15.2041 22.5153 16.4133 21.3061 17.898 21.3061C19.3827 21.3061 20.5918 22.5153 20.5918 24C20.5918 25.4847 19.3827 26.6939 17.898 26.6939ZM31.3673 33.9184C30.4888 33.9184 29.7755 33.2051 29.7755 32.3265C29.7755 31.448 30.4888 30.7347 31.3673 30.7347C32.2459 30.7347 32.9592 31.448 32.9592 32.3265C32.9592 33.2051 32.2459 33.9184 31.3673 33.9184Z" fill="white"/>
</svg>
