<svg width="58" height="58" viewBox="0 0 58 58" fill="none" xmlns="http://www.w3.org/2000/svg">
<path d="M49.7112 25.7615C49.3728 24.7948 48.4545 24.1665 47.367 24.1665H29.9912C28.8795 24.1665 27.9853 24.7948 27.6228 25.7615L24.167 35.694L24.1912 49.0098C24.1912 49.9282 24.9403 50.7498 25.8587 50.7498H27.357C28.2753 50.7498 29.0003 49.8315 29.0003 48.9132V45.9165H48.3337V48.9132C48.3337 49.8315 49.0828 50.7498 50.0012 50.7498H51.4753C52.3937 50.7498 53.1428 49.9282 53.1428 49.0098L53.167 45.699V35.694L49.7112 25.7615ZM29.9912 26.5832H47.367L49.8562 33.8332H27.502L29.9912 26.5832ZM29.0003 41.0832C27.6712 41.0832 26.5837 39.9957 26.5837 38.6665C26.5837 37.3373 27.6712 36.2498 29.0003 36.2498C30.3295 36.2498 31.417 37.3373 31.417 38.6665C31.417 39.9957 30.3295 41.0832 29.0003 41.0832ZM48.3337 41.0832C47.0045 41.0832 45.917 39.9957 45.917 38.6665C45.917 37.3373 47.0045 36.2498 48.3337 36.2498C49.6628 36.2498 50.7503 37.3373 50.7503 38.6665C50.7503 39.9957 49.6628 41.0832 48.3337 41.0832Z" fill="#0B0000"/>
<path d="M33.833 21.75H36.2497V7.25H16.9163V19.3333H4.83301V50.75H7.24967V21.75H19.333V9.66667H33.833V21.75Z" fill="#0B0000"/>
<path d="M12.083 26.5835H16.9163V31.4168H12.083V26.5835ZM24.1663 12.0835H28.9997V16.9168H24.1663V12.0835ZM12.083 36.2502H16.9163V41.0835H12.083V36.2502ZM12.083 45.9168H16.9163V50.7502H12.083V45.9168Z" fill="#0B0000"/>
</svg>
