<svg width="36" height="36" viewBox="0 0 36 36" fill="none" xmlns="http://www.w3.org/2000/svg">
<path d="M35.6667 4.20392C34.3603 4.92235 32.9553 5.40131 31.4728 5.62824C32.9797 4.51765 34.1396 2.74614 34.6837 0.652549C33.2737 1.67843 31.7112 2.43242 30.0493 2.8298C28.7218 1.0834 26.8283 0 24.731 0C20.7022 0 17.4357 4.01882 17.4357 8.97464C17.4357 9.67634 17.5023 10.3592 17.6261 11.0222C11.5648 10.6447 6.18838 7.06719 2.59172 1.63765C1.95998 2.96471 1.60453 4.51765 1.60453 6.15739C1.60453 9.27268 2.88905 12.0157 4.84826 13.6314C3.65218 13.5864 2.52686 13.1733 1.54136 12.5103C1.54136 12.5375 1.54136 12.5773 1.54136 12.6159C1.54136 16.9694 4.05649 20.595 7.39035 21.4201C6.78136 21.6272 6.137 21.7422 5.47326 21.7422C5.0024 21.7422 4.54335 21.6763 4.09861 21.577C5.02683 25.1346 7.7197 27.7354 10.9104 27.8128C8.41376 30.216 5.26942 31.6549 1.85048 31.6549C1.26002 31.6549 0.6822 31.6131 0.111115 31.5273C3.34306 34.0675 7.17809 35.5556 11.2953 35.5556C24.7108 35.5556 32.0506 21.8782 32.0506 10.012C32.0506 9.62301 32.0405 9.23608 32.0262 8.85333C33.4581 7.59739 34.6921 6.01412 35.6667 4.20392Z" fill="#111111"/>
</svg>
